<?xml version="1.0" encoding="UTF-8" standalone="no"?>
<svg
   viewBox="0 0 512 512"
   version="1.1"
   id="svg4"
   sodipodi:docname="envelope-solid.svg"
   inkscape:version="1.2.1 (9c6d41e410, 2022-07-14)"
   xmlns:inkscape="http://www.inkscape.org/namespaces/inkscape"
   xmlns:sodipodi="http://sodipodi.sourceforge.net/DTD/sodipodi-0.dtd"
   xmlns="http://www.w3.org/2000/svg"
   xmlns:svg="http://www.w3.org/2000/svg">
  <defs
     id="defs8" />
  <sodipodi:namedview
     id="namedview6"
     pagecolor="#ffffff"
     bordercolor="#000000"
     borderopacity="0.25"
     inkscape:showpageshadow="2"
     inkscape:pageopacity="0.0"
     inkscape:pagecheckerboard="0"
     inkscape:deskcolor="#d1d1d1"
     showgrid="false"
     inkscape:zoom="1.6347656"
     inkscape:cx="174.03107"
     inkscape:cy="256.30586"
     inkscape:window-width="1920"
     inkscape:window-height="1017"
     inkscape:window-x="-8"
     inkscape:window-y="-8"
     inkscape:window-maximized="1"
     inkscape:current-layer="svg4" />
  <!--! Font Awesome Pro 6.2.1 by @fontawesome - https://fontawesome.com License - https://fontawesome.com/license (Commercial License) Copyright 2022 Fonticons, Inc. -->
  <path
     d="m 91.737157,104.37276 c -20.927718,0 -37.90681,16.97909 -37.90681,37.90681 0,11.92485 5.607049,23.13895 15.162724,30.32545 L 240.83728,301.48817 c 9.00286,6.71267 21.32258,6.71267 30.32544,0 L 443.00693,172.60502 c 9.55567,-7.1865 15.16272,-18.4006 15.16272,-30.32545 0,-20.92772 -16.97909,-37.90681 -37.90681,-37.90681 z m -37.90681,88.44922 v 164.26285 c 0,27.8773 22.665114,50.54241 50.542413,50.54241 h 303.25448 c 27.8773,0 50.54241,-22.66511 50.54241,-50.54241 V 192.82198 l -171.8442,128.88316 c -18.00574,13.5043 -42.64516,13.5043 -60.6509,0 z"
     id="path2"
     style="fill:#eeeeee;fill-opacity:1;stroke-width:0.789725" />
</svg>
