<?xml version="1.0" encoding="UTF-8" standalone="no"?>
<svg
   viewBox="0 0 512 512"
   version="1.1"
   id="svg4"
   sodipodi:docname="pen-to-square-regular.svg"
   inkscape:export-filename="pen-to-square-regular.png"
   inkscape:export-xdpi="96"
   inkscape:export-ydpi="96"
   inkscape:version="1.2.1 (9c6d41e410, 2022-07-14)"
   xmlns:inkscape="http://www.inkscape.org/namespaces/inkscape"
   xmlns:sodipodi="http://sodipodi.sourceforge.net/DTD/sodipodi-0.dtd"
   xmlns="http://www.w3.org/2000/svg"
   xmlns:svg="http://www.w3.org/2000/svg">
  <defs
     id="defs8" />
  <sodipodi:namedview
     id="namedview6"
     pagecolor="#ffffff"
     bordercolor="#000000"
     borderopacity="0.25"
     inkscape:showpageshadow="2"
     inkscape:pageopacity="0.0"
     inkscape:pagecheckerboard="0"
     inkscape:deskcolor="#d1d1d1"
     showgrid="false"
     inkscape:zoom="1.6347656"
     inkscape:cx="215.01553"
     inkscape:cy="256.30585"
     inkscape:window-width="1920"
     inkscape:window-height="1017"
     inkscape:window-x="-8"
     inkscape:window-y="-8"
     inkscape:window-maximized="1"
     inkscape:current-layer="svg4" />
  <!--! Font Awesome Pro 6.2.1 by @fontawesome - https://fontawesome.com License - https://fontawesome.com/license (Commercial License) Copyright 2022 Fonticons, Inc. -->
  <path
     d="M373.1 24.97C401.2-3.147 446.8-3.147 474.9 24.97L487 37.09C515.1 65.21 515.1 110.8 487 138.9L289.8 336.2C281.1 344.8 270.4 351.1 258.6 354.5L158.6 383.1C150.2 385.5 141.2 383.1 135 376.1C128.9 370.8 126.5 361.8 128.9 353.4L157.5 253.4C160.9 241.6 167.2 230.9 175.8 222.2L373.1 24.97zM440.1 58.91C431.6 49.54 416.4 49.54 407 58.91L377.9 88L424 134.1L453.1 104.1C462.5 95.6 462.5 80.4 453.1 71.03L440.1 58.91zM203.7 266.6L186.9 325.1L245.4 308.3C249.4 307.2 252.9 305.1 255.8 302.2L390.1 168L344 121.9L209.8 256.2C206.9 259.1 204.8 262.6 203.7 266.6zM200 64C213.3 64 224 74.75 224 88C224 101.3 213.3 112 200 112H88C65.91 112 48 129.9 48 152V424C48 446.1 65.91 464 88 464H360C382.1 464 400 446.1 400 424V312C400 298.7 410.7 288 424 288C437.3 288 448 298.7 448 312V424C448 472.6 408.6 512 360 512H88C39.4 512 0 472.6 0 424V152C0 103.4 39.4 64 88 64H200z"
     id="path2"
     style="fill:#eeeeee;fill-opacity:1" />
</svg>
